# xmcd CD database file
#
# Track frame offsets:
#	150
#	38993
#	72898
#	99488
#	119638
#	151573
#	181545
#	197021
#	221746
#	252386
#
# Disc length: 3512 seconds
#
# Revision: 0
# Processed by: cddbd v1.5.2PL0 Copyright (c) Steve Scherf et al.
# Submitted via: CDex 1.95
#
DISCID=850db60a
DTITLE=Various Artist - Let's Do It: 60 Years of Verve Records - Disc 2
DYEAR=2016
DGENRE=Jazz
TTITLE0=Herbie Hancock  - Mercy Street
TTITLE1=Milt Jackson and Oscar Peterson - On Green Dolphin Street
TTITLE2=Nicholas Payton - Zigaboogaloo
TTITLE3=Kenny Rankin - Spanish Harlem
TTITLE4=Kenny Barron - Cook's Bay
TTITLE5=Tal Farlow - Meteor
TTITLE6=Jimmy Smith - The Cat
TTITLE7=Michael Brecker - Sometime's I See
TTITLE8=Hawkins and Webster - Blues For Yolanda
TTITLE9=Cal Tjader - Soul Sauce
EXTD=YEAR: 2016
EXTT0=
EXTT1=
EXTT2=
EXTT3=
EXTT4=
EXTT5=
EXTT6=
EXTT7=
EXTT8=
EXTT9=
PLAYORDER=
